<?xml version="1.0" standalone="no"?>
<!DOCTYPE svg PUBLIC "-//W3C//DTD SVG 20010904//EN"
 "http://www.w3.org/TR/2001/REC-SVG-20010904/DTD/svg10.dtd">
<svg version="1.0" xmlns="http://www.w3.org/2000/svg"
 width="177.000000pt" height="177.000000pt" viewBox="0 0 177.000000 177.000000"
 preserveAspectRatio="xMidYMid meet">

<g transform="translate(0.000000,177.000000) scale(0.100000,-0.100000)"
fill="#000000" stroke="none">
<path d="M0 885 l0 -885 885 0 885 0 0 885 0 885 -885 0 -885 0 0 -885z m1140
-165 l0 -50 -120 0 -120 0 0 -90 0 -90 110 0 110 0 0 -45 0 -45 -110 0 -110 0
0 -140 0 -140 -60 0 -60 0 0 325 0 325 180 0 180 0 0 -50z m427 27 c18 -9 44
-33 60 -53 53 -70 41 -207 -24 -266 -38 -34 -106 -58 -170 -58 l-63 0 0 -125
0 -125 -60 0 -60 0 0 319 c0 296 1 320 18 325 9 2 73 4 142 3 96 -2 132 -7
157 -20z"/>
<path d="M1370 569 l0 -112 52 6 c158 19 148 217 -12 217 l-40 0 0 -111z"/>
</g>
</svg>
