<?xml version="1.0" encoding="UTF-8"?>
<svg width="200px" height="200px" viewBox="0 0 200 200" version="1.1" xmlns="http://www.w3.org/2000/svg" xmlns:xlink="http://www.w3.org/1999/xlink">
    <!-- Generator: Sketch 64 (93537) - https://sketch.com -->
    <title>react-tag</title>
    <desc>Created with Sketch.</desc>
    <g id="页面-1" stroke="none" stroke-width="1" fill="none" fill-rule="evenodd">
        <g id="react-tag-source">
            <polygon id="矩形" fill="#1ABCFF" points="0 0 200 0 200 200 0 200"></polygon>
            <g id="react" transform="translate(70.000000, 81.000000)" fill="#FFFFFF" fill-rule="nonzero">
                <path d="M92.3421875,32.5399428 C91.10625,32.1852551 89.8703125,31.6532236 88.634375,31.298536 C88.9875,30.4118169 88.9875,29.7024416 89.1640625,28.8157225 C91.9890625,15.5149358 90.046875,4.87430641 83.8671875,1.50477378 C78.040625,-1.86475886 68.6828125,1.50477378 59.1484375,9.83993345 C58.265625,10.7266526 57.3828125,11.4360279 56.3234375,12.322747 L54.5578125,10.5493087 C44.3171875,1.50477378 34.4296875,-2.2194465 28.25,1.32742995 C22.4234375,4.69696259 20.834375,14.6282167 23.30625,27.0422843 C23.659375,28.283691 23.8359375,29.5250978 24.1890625,30.7665045 C22.6,31.1211922 21.3640625,31.6532236 20.128125,32.0079113 C8.6515625,35.9094754 0,42.4711968 0,49.3876059 C0,56.304015 9.0046875,63.3977679 21.3640625,67.299332 C22.246875,67.6540197 23.1296875,67.8313635 24.365625,68.1860511 C24.0125,69.4274579 23.8359375,71.0235523 23.4828125,72.2649591 C21.0109375,84.6790267 22.953125,94.2555931 28.7796875,97.6251257 C34.60625,100.994658 44.846875,97.6251257 54.38125,88.9352784 C55.2640625,88.4032469 55.9703125,87.339184 56.853125,86.8071525 C57.7359375,87.6938717 58.61875,88.5805908 59.8546875,89.6446537 C69.3890625,97.6251257 78.746875,101.172002 84.2203125,97.6251257 C90.046875,94.2555931 92.165625,83.6149637 89.5171875,71.0235523 C89.1640625,70.1368332 89.1640625,69.2501141 88.9875,68.0087073 C89.5171875,67.6540197 90.5765625,67.6540197 91.10625,67.4766759 C103.81875,62.8657365 113,56.1266712 113,49.3876059 C113,43.1805721 104.348437,36.6188507 92.3421875,32.5399428 Z M62.3265625,13.5641537 C70.625,6.47040081 78.040625,3.63289965 81.7484375,5.5836817 C85.45625,7.71180757 87.0453125,16.4016549 84.5734375,27.9290034 C84.2203125,28.4610348 84.2203125,29.5250978 84.04375,30.0571292 C79.1,28.8157225 74.15625,28.283691 69.2125,27.5743157 C66.3875,23.4954078 63.3859375,19.5938437 60.03125,15.8696234 C60.7375,15.1602481 61.44375,14.6282167 62.3265625,13.5641537 Z M37.078125,61.4469859 C38.3140625,63.2204241 39.196875,65.1712062 40.4328125,67.299332 C37.078125,66.9446444 33.7234375,66.4126129 30.1921875,65.7032376 C31.075,62.6883926 32.3109375,59.1415162 33.9,55.7719835 C34.959375,57.368078 35.8421875,59.4962038 37.078125,61.4469859 Z M30.1921875,34.6680686 C33.19375,34.1360372 36.725,33.4266619 40.4328125,32.8946304 C39.196875,34.6680686 37.9609375,36.6188507 37.078125,38.3922889 C35.8421875,40.1657271 34.959375,42.1165092 34.0765625,44.2446351 C32.4875,40.8751024 31.2515625,37.8602574 30.1921875,34.6680686 L30.1921875,34.6680686 Z M36.1953125,49.9196374 C37.784375,46.9047924 39.196875,43.7126036 40.7859375,40.8751024 C42.375,37.8602574 44.140625,35.0227563 46.0828125,32.1852551 C49.4375,32.0079113 52.7921875,32.0079113 56.146875,32.0079113 C59.5015625,32.0079113 62.85625,32.0079113 66.3875,32.3625989 C68.153125,35.2001001 70.0953125,37.8602574 71.684375,41.0524463 C73.45,43.8899474 75.0390625,46.9047924 76.628125,50.0969812 C75.0390625,53.1118262 73.6265625,56.304015 72.0375,59.1415162 C70.4484375,62.1563612 68.6828125,64.9938623 66.740625,67.8313635 C63.3859375,68.1860511 60.03125,68.1860511 56.5,68.1860511 C52.96875,68.1860511 49.790625,68.1860511 46.259375,67.8313635 C44.49375,64.9938623 42.5515625,62.333705 40.7859375,59.1415162 C39.196875,56.1266712 37.6078125,53.1118262 36.1953125,49.9196374 L36.1953125,49.9196374 Z M76.275,61.4469859 C77.5109375,59.6735477 78.39375,57.368078 79.2765625,55.5946397 C80.865625,58.6094847 82.1015625,62.1563612 82.984375,65.5258938 C79.6296875,66.4126129 76.275,66.7673006 72.5671875,67.299332 C73.803125,65.1712062 75.0390625,63.2204241 76.275,61.4469859 L76.275,61.4469859 Z M79.2765625,44.4219789 C78.39375,42.6485407 77.1578125,40.343071 76.275,38.5696327 C75.0390625,36.7961945 74.15625,34.8454125 72.9203125,33.0719742 C76.628125,33.4266619 79.9828125,33.9586933 83.1609375,34.8454125 C81.7484375,38.2149451 80.5125,41.2297901 79.2765625,44.4219789 L79.2765625,44.4219789 Z M56.5,19.5938437 C58.971875,22.0766572 61.090625,24.9141584 63.0328125,27.5743157 C58.7953125,27.2196281 54.38125,27.2196281 49.790625,27.5743157 C52.2625,24.5594707 54.38125,21.7219696 56.5,19.5938437 Z M30.8984375,5.93836934 C34.60625,3.81024347 42.9046875,6.82508846 51.55625,14.6282167 C52.0859375,15.1602481 52.7921875,15.5149358 53.1453125,16.2243111 C49.790625,19.9485313 46.6125,24.0274393 43.6109375,27.9290034 C38.6671875,28.283691 33.7234375,29.1704101 28.7796875,30.0571292 C28.4265625,28.8157225 28.25,27.9290034 27.896875,26.6875966 C26.3078125,15.8696234 27.54375,7.71180757 30.8984375,5.93836934 L30.8984375,5.93836934 Z M25.6015625,64.1071432 C24.71875,63.7524556 23.8359375,63.5751118 22.7765625,63.2204241 C18.1859375,61.6243297 12.5359375,59.4962038 8.828125,56.4813588 C6.709375,54.8852644 5.1203125,52.4024509 4.7671875,49.9196374 C4.7671875,45.8407295 11.8296875,40.6977586 21.7171875,37.1508822 C22.953125,36.7961945 24.1890625,36.264163 25.425,35.9094754 C27.0140625,40.8751024 28.7796875,45.4860418 30.8984375,49.9196374 C28.95625,54.5305768 27.190625,59.31886 25.6015625,64.1071432 Z M51.203125,85.9204334 C47.4953125,89.2899661 43.434375,91.7727796 38.84375,93.7235616 C36.371875,94.9649684 33.546875,94.9649684 31.075,94.0782493 C27.7203125,91.9501234 26.13125,84.1469952 28.0734375,73.6837097 C28.4265625,72.4423029 28.603125,71.2008961 28.95625,69.9594894 C33.9,70.8462085 38.84375,71.7329276 44.140625,72.0876152 C46.965625,76.1665232 50.3203125,80.0680873 53.675,83.7923076 C52.7921875,84.6790267 51.909375,85.2110581 51.203125,85.9204334 L51.203125,85.9204334 Z M56.853125,80.6001187 C54.734375,78.1173052 52.2625,75.2798041 50.14375,72.6196467 L56.6765625,72.6196467 C58.7953125,72.6196467 61.2671875,72.6196467 63.3859375,72.2649591 C61.090625,75.2798041 58.971875,78.1173052 56.853125,80.6001187 L56.853125,80.6001187 Z M85.45625,87.1618402 C85.103125,89.9993413 83.8671875,92.4821549 81.7484375,93.9009054 C78.39375,96.0290313 70.625,93.368874 62.6796875,86.4524649 C61.796875,85.5657458 60.9140625,84.8563705 59.8546875,83.9696514 C63.209375,80.2454311 66.3875,76.1665232 69.0359375,72.2649591 C73.9796875,71.9102714 79.2765625,71.0235523 84.2203125,69.7821455 C84.5734375,70.6688647 84.5734375,71.5555838 84.75,72.6196467 C86.1625,77.2305861 86.1625,82.1962131 85.45625,87.1618402 L85.45625,87.1618402 Z M89.5171875,63.2204241 C88.9875,63.5751118 88.28125,63.5751118 87.7515625,63.7524556 C86.1625,59.1415162 84.396875,54.5305768 82.278125,49.7422936 C84.396875,45.1313542 86.3390625,40.5204148 87.7515625,35.7321316 C88.9875,36.0868192 89.8703125,36.264163 91.10625,36.6188507 C101.346875,39.9883833 108.7625,45.308698 108.7625,49.3876059 C108.409375,54.353233 100.640625,59.8508915 89.5171875,63.2204241 Z M56.5,60.2055791 C61.9734375,60.2055791 66.740625,55.5946397 66.740625,49.9196374 C66.740625,44.4219789 62.15,39.6336957 56.5,39.6336957 C50.85,39.6336957 46.259375,44.2446351 46.259375,49.9196374 C46.259375,55.5946397 51.0265625,60.2055791 56.5,60.2055791 L56.5,60.2055791 Z" id="形状"></path>
            </g>
        </g>
    </g>
</svg>